{
  "accessors": [
    {
      "bufferView": 2,
      "componentType": 5126,
      "count": 118,
      "max": [
        -0.08650970458984375,
        0.0988006591796875,
        0.2088775634765625
      ],
      "min": [
        -0.24416351318359375,
        -0.06707000732421875,
        0.09204483032226563
      ],
      "type": "VEC3"
    },
    {
      "bufferView": 2,
      "byteOffset": 1416,
      "componentType": 5126,
      "count": 118,
      "max": [
        0.781878650188446,
        0.9972490072250366,
        0.9749419689178467
      ],
      "min": [
        -1.0,
        -0.9972690343856812,
        -0.22252647578716278
      ],
      "type": "VEC3"
    },
    {
      "bufferView": 1,
      "componentType": 5126,
      "count": 118,
      "max": [
        0.9510635137557983,
        0.9382325410842896
      ],
      "min": [
        0.7658381462097168,
        0.5732529759407043
      ],
      "type": "VEC2"
    },
    {
      "bufferView": 1,
      "byteOffset": 944,
      "componentType": 5126,
      "count": 118,
      "max": [
        0.9510635137557983,
        0.9382325410842896
      ],
      "min": [
        0.7658381462097168,
        0.5732529759407043
      ],
      "type": "VEC2"
    },
    {
      "bufferView": 1,
      "byteOffset": 1888,
      "componentType": 5126,
      "count": 118,
      "max": [
        0.9510635137557983,
        0.9382325410842896
      ],
      "min": [
        0.7658381462097168,
        0.5732529759407043
      ],
      "type": "VEC2"
    },
    {
      "bufferView": 1,
      "byteOffset": 2832,
      "componentType": 5126,
      "count": 118,
      "max": [
        0.9510635137557983,
        0.9382325410842896
      ],
      "min": [
        0.7658381462097168,
        0.5732529759407043
      ],
      "type": "VEC2"
    },
    {
      "bufferView": 1,
      "byteOffset": 3776,
      "componentType": 5126,
      "count": 118,
      "max": [
        0.9510635137557983,
        0.9382325410842896
      ],
      "min": [
        0.7658381462097168,
        0.5732529759407043
      ],
      "type": "VEC2"
    },
    {
      "bufferView": 1,
      "byteOffset": 4720,
      "componentType": 5126,
      "count": 118,
      "max": [
        0.9510635137557983,
        0.9382325410842896
      ],
      "min": [
        0.7658381462097168,
        0.5732529759407043
      ],
      "type": "VEC2"
    },
    {
      "bufferView": 1,
      "byteOffset": 5664,
      "componentType": 5126,
      "count": 118,
      "max": [
        0.9510635137557983,
        0.9382325410842896
      ],
      "min": [
        0.7658381462097168,
        0.5732529759407043
      ],
      "type": "VEC2"
    },
    {
      "bufferView": 1,
      "byteOffset": 6608,
      "componentType": 5126,
      "count": 118,
      "max": [
        0.9510635137557983,
        0.9382325410842896
      ],
      "min": [
        0.7658381462097168,
        0.5732529759407043
      ],
      "type": "VEC2"
    },
    {
      "bufferView": 1,
      "byteOffset": 7552,
      "componentType": 5126,
      "count": 118,
      "max": [
        0.9510635137557983,
        0.9382325410842896
      ],
      "min": [
        0.7658381462097168,
        0.5732529759407043
      ],
      "type": "VEC2"
    },
    {
      "bufferView": 1,
      "byteOffset": 8496,
      "componentType": 5126,
      "count": 118,
      "max": [
        0.9510635137557983,
        0.9382325410842896
      ],
      "min": [
        0.7658381462097168,
        0.5732529759407043
      ],
      "type": "VEC2"
    },
    {
      "bufferView": 0,
      "componentType": 5125,
      "count": 546,
      "type": "SCALAR"
    },
    {
      "bufferView": 2,
      "byteOffset": 2832,
      "componentType": 5126,
      "count": 118,
      "max": [
        -0.08650970458984375,
        0.0988006591796875,
        -0.0926666259765625
      ],
      "min": [
        -0.24416351318359375,
        -0.06707000732421875,
        -0.2095184326171875
      ],
      "type": "VEC3"
    },
    {
      "bufferView": 2,
      "byteOffset": 4248,
      "componentType": 5126,
      "count": 118,
      "max": [
        0.7818379402160645,
        0.9972480535507202,
        0.2224440723657608
      ],
      "min": [
        -1.0,
        -0.99726802110672,
        -0.9749222993850708
      ],
      "type": "VEC3"
    },
    {
      "bufferView": 1,
      "byteOffset": 9440,
      "componentType": 5126,
      "count": 118,
      "max": [
        0.9510635137557983,
        0.9382325410842896
      ],
      "min": [
        0.7658381462097168,
        0.5732529759407043
      ],
      "type": "VEC2"
    },
    {
      "bufferView": 1,
      "byteOffset": 10384,
      "componentType": 5126,
      "count": 118,
      "max": [
        0.9510635137557983,
        0.9382325410842896
      ],
      "min": [
        0.7658381462097168,
        0.5732529759407043
      ],
      "type": "VEC2"
    },
    {
      "bufferView": 1,
      "byteOffset": 11328,
      "componentType": 5126,
      "count": 118,
      "max": [
        0.9510635137557983,
        0.9382325410842896
      ],
      "min": [
        0.7658381462097168,
        0.5732529759407043
      ],
      "type": "VEC2"
    },
    {
      "bufferView": 1,
      "byteOffset": 12272,
      "componentType": 5126,
      "count": 118,
      "max": [
        0.9510635137557983,
        0.9382325410842896
      ],
      "min": [
        0.7658381462097168,
        0.5732529759407043
      ],
      "type": "VEC2"
    },
    {
      "bufferView": 1,
      "byteOffset": 13216,
      "componentType": 5126,
      "count": 118,
      "max": [
        0.9510635137557983,
        0.9382325410842896
      ],
      "min": [
        0.7658381462097168,
        0.5732529759407043
      ],
      "type": "VEC2"
    },
    {
      "bufferView": 1,
      "byteOffset": 14160,
      "componentType": 5126,
      "count": 118,
      "max": [
        0.9510635137557983,
        0.9382325410842896
      ],
      "min": [
        0.7658381462097168,
        0.5732529759407043
      ],
      "type": "VEC2"
    },
    {
      "bufferView": 1,
      "byteOffset": 15104,
      "componentType": 5126,
      "count": 118,
      "max": [
        0.9510635137557983,
        0.9382325410842896
      ],
      "min": [
        0.7658381462097168,
        0.5732529759407043
      ],
      "type": "VEC2"
    },
    {
      "bufferView": 1,
      "byteOffset": 16048,
      "componentType": 5126,
      "count": 118,
      "max": [
        0.9510635137557983,
        0.9382325410842896
      ],
      "min": [
        0.7658381462097168,
        0.5732529759407043
      ],
      "type": "VEC2"
    },
    {
      "bufferView": 1,
      "byteOffset": 16992,
      "componentType": 5126,
      "count": 118,
      "max": [
        0.9510635137557983,
        0.9382325410842896
      ],
      "min": [
        0.7658381462097168,
        0.5732529759407043
      ],
      "type": "VEC2"
    },
    {
      "bufferView": 1,
      "byteOffset": 17936,
      "componentType": 5126,
      "count": 118,
      "max": [
        0.9510635137557983,
        0.9382325410842896
      ],
      "min": [
        0.7658381462097168,
        0.5732529759407043
      ],
      "type": "VEC2"
    },
    {
      "bufferView": 0,
      "byteOffset": 2184,
      "componentType": 5125,
      "count": 546,
      "type": "SCALAR"
    },
    {
      "bufferView": 2,
      "byteOffset": 5664,
      "componentType": 5126,
      "count": 1086,
      "max": [
        0.48021259903907776,
        0.21860873699188232,
        0.29441261291503906
      ],
      "min": [
        -0.48021259903907776,
        -0.21860873699188232,
        -0.29441261291503906
      ],
      "type": "VEC3"
    },
    {
      "bufferView": 2,
      "byteOffset": 18696,
      "componentType": 5126,
      "count": 1086,
      "max": [
        0.9920547604560852,
        1.0,
        0.9995973706245422
      ],
      "min": [
        -0.9959535598754883,
        -1.0,
        -0.999082088470459
      ],
      "type": "VEC3"
    },
    {
      "bufferView": 1,
      "byteOffset": 18880,
      "componentType": 5126,
      "count": 1086,
      "max": [
        0.9729059338569641,
        0.4347549080848694
      ],
      "min": [
        0.7409518361091614,
        0.06333059072494507
      ],
      "type": "VEC2"
    },
    {
      "bufferView": 1,
      "byteOffset": 27568,
      "componentType": 5126,
      "count": 1086,
      "max": [
        0.9729059338569641,
        0.4347549080848694
      ],
      "min": [
        0.7409518361091614,
        0.06333059072494507
      ],
      "type": "VEC2"
    },
    {
      "bufferView": 1,
      "byteOffset": 36256,
      "componentType": 5126,
      "count": 1086,
      "max": [
        0.9729059338569641,
        0.4347549080848694
      ],
      "min": [
        0.7409518361091614,
        0.06333059072494507
      ],
      "type": "VEC2"
    },
    {
      "bufferView": 1,
      "byteOffset": 44944,
      "componentType": 5126,
      "count": 1086,
      "max": [
        0.9729059338569641,
        0.4347549080848694
      ],
      "min": [
        0.7409518361091614,
        0.06333059072494507
      ],
      "type": "VEC2"
    },
    {
      "bufferView": 1,
      "byteOffset": 53632,
      "componentType": 5126,
      "count": 1086,
      "max": [
        0.9729059338569641,
        0.4347549080848694
      ],
      "min": [
        0.7409518361091614,
        0.06333059072494507
      ],
      "type": "VEC2"
    },
    {
      "bufferView": 1,
      "byteOffset": 62320,
      "componentType": 5126,
      "count": 1086,
      "max": [
        0.9729059338569641,
        0.4347549080848694
      ],
      "min": [
        0.7409518361091614,
        0.06333059072494507
      ],
      "type": "VEC2"
    },
    {
      "bufferView": 1,
      "byteOffset": 71008,
      "componentType": 5126,
      "count": 1086,
      "max": [
        0.9729059338569641,
        0.4347549080848694
      ],
      "min": [
        0.7409518361091614,
        0.06333059072494507
      ],
      "type": "VEC2"
    },
    {
      "bufferView": 1,
      "byteOffset": 79696,
      "componentType": 5126,
      "count": 1086,
      "max": [
        0.9729059338569641,
        0.4347549080848694
      ],
      "min": [
        0.7409518361091614,
        0.06333059072494507
      ],
      "type": "VEC2"
    },
    {
      "bufferView": 1,
      "byteOffset": 88384,
      "componentType": 5126,
      "count": 1086,
      "max": [
        0.9729059338569641,
        0.4347549080848694
      ],
      "min": [
        0.7409518361091614,
        0.06333059072494507
      ],
      "type": "VEC2"
    },
    {
      "bufferView": 1,
      "byteOffset": 97072,
      "componentType": 5126,
      "count": 1086,
      "max": [
        0.9729059338569641,
        0.4347549080848694
      ],
      "min": [
        0.7409518361091614,
        0.06333059072494507
      ],
      "type": "VEC2"
    },
    {
      "bufferView": 0,
      "byteOffset": 4368,
      "componentType": 5125,
      "count": 4410,
      "type": "SCALAR"
    }
  ],
  "asset": {
    "extras": {
      "author": "fengthefern (https://sketchfab.com/fengthefern)",
      "license": "CC-BY-4.0 (http://creativecommons.org/licenses/by/4.0/)",
      "source": "https://sketchfab.com/3d-models/cuttlefish-ebeffc518e38486e82afe1b500015c83",
      "title": "Cuttlefish"
    },
    "generator": "Sketchfab-12.68.0",
    "version": "2.0"
  },
  "bufferViews": [
    {
      "buffer": 0,
      "byteLength": 22008,
      "name": "floatBufferViews",
      "target": 34963
    },
    {
      "buffer": 0,
      "byteLength": 105760,
      "byteOffset": 22008,
      "byteStride": 8,
      "name": "floatBufferViews",
      "target": 34962
    },
    {
      "buffer": 0,
      "byteLength": 31728,
      "byteOffset": 127768,
      "byteStride": 12,
      "name": "floatBufferViews",
      "target": 34962
    }
  ],
  "buffers": [
    {
      "byteLength": 159496,
      "uri": "scene.bin"
    }
  ],
  "images": [
    {
      "uri": "textures/Material_34_baseColor.png"
    }
  ],
  "materials": [
    {
      "doubleSided": true,
      "name": "Material_34",
      "pbrMetallicRoughness": {
        "baseColorTexture": {
          "index": 0
        },
        "metallicFactor": 0.0
      }
    },
    {
      "doubleSided": true,
      "name": "Material_35",
      "pbrMetallicRoughness": {
        "baseColorTexture": {
          "index": 0
        },
        "metallicFactor": 0.0
      }
    },
    {
      "doubleSided": true,
      "name": "Material_36",
      "pbrMetallicRoughness": {
        "baseColorTexture": {
          "index": 0
        },
        "metallicFactor": 0.0
      }
    }
  ],
  "meshes": [
    {
      "name": "node_id5_Material_34_0",
      "primitives": [
        {
          "attributes": {
            "NORMAL": 1,
            "POSITION": 0,
            "TEXCOORD_0": 2,
            "TEXCOORD_1": 3,
            "TEXCOORD_2": 4,
            "TEXCOORD_3": 5,
            "TEXCOORD_4": 6,
            "TEXCOORD_5": 7,
            "TEXCOORD_6": 8,
            "TEXCOORD_7": 9,
            "TEXCOORD_8": 10,
            "TEXCOORD_9": 11
          },
          "indices": 12,
          "material": 0,
          "mode": 4
        }
      ]
    },
    {
      "name": "node_id7_Material_35_0",
      "primitives": [
        {
          "attributes": {
            "NORMAL": 14,
            "POSITION": 13,
            "TEXCOORD_0": 15,
            "TEXCOORD_1": 16,
            "TEXCOORD_2": 17,
            "TEXCOORD_3": 18,
            "TEXCOORD_4": 19,
            "TEXCOORD_5": 20,
            "TEXCOORD_6": 21,
            "TEXCOORD_7": 22,
            "TEXCOORD_8": 23,
            "TEXCOORD_9": 24
          },
          "indices": 25,
          "material": 1,
          "mode": 4
        }
      ]
    },
    {
      "name": "node_id9_Material_36_0",
      "primitives": [
        {
          "attributes": {
            "NORMAL": 27,
            "POSITION": 26,
            "TEXCOORD_0": 28,
            "TEXCOORD_1": 29,
            "TEXCOORD_2": 30,
            "TEXCOORD_3": 31,
            "TEXCOORD_4": 32,
            "TEXCOORD_5": 33,
            "TEXCOORD_6": 34,
            "TEXCOORD_7": 35,
            "TEXCOORD_8": 36,
            "TEXCOORD_9": 37
          },
          "indices": 38,
          "material": 2,
          "mode": 4
        }
      ]
    }
  ],
  "nodes": [
    {
      "children": [
        1
      ],
      "matrix": [
        1.0,
        0.0,
        0.0,
        0.0,
        0.0,
        2.220446049250313e-16,
        -1.0,
        0.0,
        0.0,
        1.0,
        2.220446049250313e-16,
        0.0,
        0.0,
        0.0,
        0.0,
        1.0
      ],
      "name": "Sketchfab_model"
    },
    {
      "children": [
        2
      ],
      "matrix": [
        1.0,
        0.0,
        0.0,
        0.0,
        0.0,
        0.0,
        1.0,
        0.0,
        0.0,
        -1.0,
        0.0,
        0.0,
        0.0,
        0.0,
        0.0,
        1.0
      ],
      "name": "std_cuttlefish_toon_01.fbx.fbx"
    },
    {
      "children": [
        3
      ],
      "name": "RootNode"
    },
    {
      "children": [
        4
      ],
      "name": "root"
    },
    {
      "children": [
        5,
        7,
        9
      ],
      "matrix": [
        0.0010000000474974513,
        0.0,
        0.0,
        0.0,
        0.0,
        0.0010000000474974513,
        0.0,
        0.0,
        0.0,
        0.0,
        0.0010000000474974513,
        0.0,
        0.0,
        0.0,
        0.0,
        1.0
      ],
      "name": "node_id11"
    },
    {
      "children": [
        6
      ],
      "matrix": [
        533.0972290039063,
        0.0,
        0.0,
        0.0,
        0.0,
        533.0972290039063,
        0.0,
        0.0,
        0.0,
        0.0,
        533.0972290039063,
        0.0,
        0.0,
        -0.00024241242499556392,
        256.0,
        1.0
      ],
      "name": "node_id5"
    },
    {
      "mesh": 0,
      "name": "node_id5_Material_34_0"
    },
    {
      "children": [
        8
      ],
      "matrix": [
        533.0972290039063,
        0.0,
        0.0,
        0.0,
        0.0,
        533.0972290039063,
        0.0,
        0.0,
        0.0,
        0.0,
        533.0972290039063,
        0.0,
        0.0,
        -0.00024241242499556392,
        256.0,
        1.0
      ],
      "name": "node_id7"
    },
    {
      "mesh": 1,
      "name": "node_id7_Material_35_0"
    },
    {
      "children": [
        10
      ],
      "matrix": [
        533.0972290039063,
        0.0,
        0.0,
        0.0,
        0.0,
        533.0972290039063,
        0.0,
        0.0,
        0.0,
        0.0,
        533.0972290039063,
        0.0,
        0.0,
        -0.00024241242499556392,
        256.0,
        1.0
      ],
      "name": "node_id9"
    },
    {
      "mesh": 2,
      "name": "node_id9_Material_36_0"
    }
  ],
  "samplers": [
    {
      "magFilter": 9729,
      "minFilter": 9987,
      "wrapS": 10497,
      "wrapT": 10497
    }
  ],
  "scene": 0,
  "scenes": [
    {
      "name": "Sketchfab_Scene",
      "nodes": [
        0
      ]
    }
  ],
  "textures": [
    {
      "sampler": 0,
      "source": 0
    }
  ]
}
